<svg width="309" height="48" viewBox="0 0 309 48" fill="none" xmlns="http://www.w3.org/2000/svg">
<path d="M15.095 43.5014C33.2083 43.5014 43.1155 28.4947 43.1155 15.4809C43.1155 15.0547 43.1155 14.6304 43.0867 14.208C45.0141 12.8139 46.6778 11.0877 48 9.11036C46.2028 9.90716 44.2961 10.4295 42.3437 10.6598C44.3996 9.42918 45.9383 7.49336 46.6733 5.21276C44.7402 6.35997 42.6253 7.16841 40.4198 7.60316C38.935 6.02431 36.9712 4.97884 34.8324 4.62853C32.6935 4.27821 30.4988 4.64259 28.5879 5.66526C26.677 6.68794 25.1564 8.31191 24.2615 10.2859C23.3665 12.2598 23.1471 14.4737 23.6371 16.5849C19.7218 16.3885 15.8915 15.371 12.3949 13.5984C8.89831 11.8258 5.81353 9.33768 3.3408 6.29564C2.08146 8.46363 1.69574 11.0301 2.2622 13.4725C2.82865 15.9149 4.30468 18.0495 6.38976 19.4419C4.82246 19.396 3.2893 18.9731 1.92 18.2092V18.334C1.92062 20.6077 2.7077 22.8112 4.14774 24.5708C5.58778 26.3303 7.59212 27.5376 9.8208 27.9878C8.37096 28.3833 6.84975 28.4411 5.37408 28.1568C6.00363 30.1134 7.22886 31.8244 8.87848 33.0506C10.5281 34.2768 12.5197 34.9569 14.5747 34.9958C12.5329 36.6007 10.1946 37.7874 7.69375 38.4878C5.19287 39.1882 2.57843 39.3887 0 39.0777C4.50367 41.9678 9.74385 43.5007 15.095 43.4937" fill="#1DA1F2"/>
<path d="M111 4.32187C117.413 4.32187 118.172 4.35 120.694 4.4625C123.038 4.56562 124.303 4.95938 125.147 5.2875C126.263 5.71875 127.069 6.24375 127.903 7.07812C128.747 7.92188 129.263 8.71875 129.694 9.83438C130.022 10.6781 130.416 11.9531 130.519 14.2875C130.631 16.8187 130.659 17.5781 130.659 23.9813C130.659 30.3938 130.631 31.1531 130.519 33.675C130.416 36.0188 130.022 37.2844 129.694 38.1281C129.263 39.2438 128.737 40.05 127.903 40.8844C127.059 41.7281 126.263 42.2438 125.147 42.675C124.303 43.0031 123.028 43.3969 120.694 43.5C118.163 43.6125 117.403 43.6406 111 43.6406C104.588 43.6406 103.828 43.6125 101.306 43.5C98.9625 43.3969 97.6969 43.0031 96.8531 42.675C95.7375 42.2438 94.9313 41.7188 94.0969 40.8844C93.2531 40.0406 92.7375 39.2438 92.3063 38.1281C91.9781 37.2844 91.5844 36.0094 91.4813 33.675C91.3688 31.1438 91.3406 30.3844 91.3406 23.9813C91.3406 17.5688 91.3688 16.8094 91.4813 14.2875C91.5844 11.9437 91.9781 10.6781 92.3063 9.83438C92.7375 8.71875 93.2625 7.9125 94.0969 7.07812C94.9406 6.23438 95.7375 5.71875 96.8531 5.2875C97.6969 4.95938 98.9719 4.56562 101.306 4.4625C103.828 4.35 104.588 4.32187 111 4.32187ZM111 0C104.484 0 103.669 0.028125 101.109 0.140625C98.5594 0.253125 96.8063 0.665625 95.2875 1.25625C93.7031 1.875 92.3625 2.69062 91.0313 4.03125C89.6906 5.3625 88.875 6.70313 88.2563 8.27813C87.6656 9.80625 87.2531 11.55 87.1406 14.1C87.0281 16.6687 87 17.4844 87 24C87 30.5156 87.0281 31.3312 87.1406 33.8906C87.2531 36.4406 87.6656 38.1938 88.2563 39.7125C88.875 41.2969 89.6906 42.6375 91.0313 43.9688C92.3625 45.3 93.7031 46.125 95.2781 46.7344C96.8063 47.325 98.55 47.7375 101.1 47.85C103.659 47.9625 104.475 47.9906 110.991 47.9906C117.506 47.9906 118.322 47.9625 120.881 47.85C123.431 47.7375 125.184 47.325 126.703 46.7344C128.278 46.125 129.619 45.3 130.95 43.9688C132.281 42.6375 133.106 41.2969 133.716 39.7219C134.306 38.1938 134.719 36.45 134.831 33.9C134.944 31.3406 134.972 30.525 134.972 24.0094C134.972 17.4938 134.944 16.6781 134.831 14.1188C134.719 11.5688 134.306 9.81563 133.716 8.29688C133.125 6.70312 132.309 5.3625 130.969 4.03125C129.638 2.7 128.297 1.875 126.722 1.26562C125.194 0.675 123.45 0.2625 120.9 0.15C118.331 0.028125 117.516 0 111 0Z" fill="#000100"/>
<path d="M111 11.6719C104.194 11.6719 98.6719 17.1938 98.6719 24C98.6719 30.8062 104.194 36.3281 111 36.3281C117.806 36.3281 123.328 30.8062 123.328 24C123.328 17.1938 117.806 11.6719 111 11.6719ZM111 31.9969C106.584 31.9969 103.003 28.4156 103.003 24C103.003 19.5844 106.584 16.0031 111 16.0031C115.416 16.0031 118.997 19.5844 118.997 24C118.997 28.4156 115.416 31.9969 111 31.9969Z" fill="#000100"/>
<path d="M126.694 11.1844C126.694 12.7782 125.4 14.0625 123.816 14.0625C122.222 14.0625 120.938 12.7688 120.938 11.1844C120.938 9.59065 122.231 8.30627 123.816 8.30627C125.4 8.30627 126.694 9.60003 126.694 11.1844Z" fill="#000100"/>
<g clip-path="url(#clip0_21_100)">
<path d="M218.457 0H177.543C176.604 0 175.702 0.373315 175.038 1.03782C174.373 1.70232 174 2.60358 174 3.54333V44.4567C174 45.3964 174.373 46.2977 175.038 46.9622C175.702 47.6267 176.604 48 177.543 48H218.457C219.396 48 220.298 47.6267 220.962 46.9622C221.627 46.2977 222 45.3964 222 44.4567V3.54333C222 2.60358 221.627 1.70232 220.962 1.03782C220.298 0.373315 219.396 0 218.457 0ZM188.307 40.89H181.09V17.9667H188.307V40.89ZM184.693 14.79C183.875 14.7854 183.076 14.5384 182.397 14.0802C181.719 13.622 181.192 12.9731 180.882 12.2154C180.572 11.4577 180.493 10.6252 180.656 9.82291C180.819 9.02063 181.216 8.28455 181.796 7.70756C182.377 7.13057 183.116 6.73853 183.919 6.58092C184.722 6.42331 185.554 6.50719 186.31 6.82197C187.066 7.13675 187.711 7.66833 188.165 8.34962C188.619 9.03092 188.861 9.83138 188.86 10.65C188.868 11.1981 188.765 11.7421 188.558 12.2496C188.351 12.7571 188.044 13.2178 187.655 13.6041C187.266 13.9905 186.804 14.2946 186.295 14.4983C185.786 14.702 185.241 14.8012 184.693 14.79ZM214.907 40.91H207.693V28.3867C207.693 24.6933 206.123 23.5533 204.097 23.5533C201.957 23.5533 199.857 25.1667 199.857 28.48V40.91H192.64V17.9833H199.58V21.16H199.673C200.37 19.75 202.81 17.34 206.533 17.34C210.56 17.34 214.91 19.73 214.91 26.73L214.907 40.91Z" fill="#0A66C2"/>
</g>
<g clip-path="url(#clip1_21_100)">
<path fill-rule="evenodd" clip-rule="evenodd" d="M285.001 1C279.303 1.00296 273.792 3.02092 269.454 6.69305C265.115 10.3652 262.232 15.452 261.319 21.044C260.406 26.636 261.524 32.3684 264.472 37.2164C267.42 42.0643 272.006 45.7115 277.41 47.5059C278.602 47.7272 279.051 46.9883 279.051 46.36C279.051 45.7317 279.027 43.91 279.019 41.9184C272.343 43.3608 270.932 39.101 270.932 39.101C269.843 36.3349 268.269 35.6078 268.269 35.6078C266.091 34.1299 268.432 34.1576 268.432 34.1576C270.845 34.3275 272.112 36.6194 272.112 36.6194C274.25 40.2667 277.728 39.2116 279.095 38.5952C279.31 37.0501 279.933 35.999 280.621 35.4023C275.288 34.8017 269.684 32.7548 269.684 23.6108C269.651 21.2394 270.536 18.9461 272.156 17.2054C271.91 16.6047 271.087 14.1785 272.39 10.8829C272.39 10.8829 274.405 10.2427 278.992 13.3289C282.925 12.2592 287.076 12.2592 291.009 13.3289C295.592 10.2427 297.603 10.8829 297.603 10.8829C298.91 14.1706 298.087 16.5968 297.841 17.2054C299.466 18.9464 300.353 21.2437 300.317 23.6187C300.317 32.7824 294.701 34.8017 289.36 35.3905C290.219 36.1334 290.986 37.5836 290.986 39.8122C290.986 43.0051 290.958 45.5736 290.958 46.36C290.958 46.9962 291.391 47.7391 292.607 47.5059C298.012 45.7113 302.598 42.0634 305.546 37.2147C308.494 32.3659 309.611 26.6326 308.697 21.0401C307.783 15.4476 304.899 10.3607 300.559 6.68921C296.219 3.01771 290.707 1.00108 285.008 1H285.001Z" fill="#191717"/>
<path d="M270.089 35.264C270.037 35.3826 269.846 35.4181 269.691 35.3351C269.536 35.2522 269.421 35.098 269.477 34.9755C269.532 34.853 269.719 34.8214 269.874 34.9044C270.029 34.9874 270.148 35.1455 270.089 35.264Z" fill="#191717"/>
<path d="M271.063 36.3428C270.98 36.384 270.886 36.3955 270.796 36.3753C270.706 36.3551 270.626 36.3045 270.57 36.2321C270.415 36.0662 270.383 35.837 270.502 35.7342C270.621 35.6315 270.836 35.6789 270.991 35.8449C271.146 36.0108 271.182 36.24 271.063 36.3428Z" fill="#191717"/>
<path d="M272.008 37.7139C271.861 37.8167 271.611 37.7139 271.472 37.5085C271.434 37.4716 271.403 37.4274 271.382 37.3785C271.361 37.3296 271.35 37.2771 271.35 37.2239C271.35 37.1708 271.361 37.1183 271.382 37.0694C271.403 37.0205 271.434 36.9763 271.472 36.9394C271.619 36.8406 271.869 36.9394 272.008 37.141C272.148 37.3425 272.152 37.6112 272.008 37.7139Z" fill="#191717"/>
<path d="M273.292 39.0417C273.161 39.1879 272.895 39.1484 272.676 38.9509C272.458 38.7533 272.406 38.4846 272.537 38.3423C272.668 38.2001 272.934 38.2396 273.161 38.4332C273.387 38.6268 273.431 38.8995 273.292 39.0417Z" fill="#191717"/>
<path d="M275.092 39.8162C275.033 40.0019 274.762 40.0849 274.492 40.0058C274.222 39.9268 274.043 39.7055 274.095 39.5158C274.146 39.3262 274.421 39.2392 274.695 39.3262C274.969 39.4131 275.144 39.6225 275.092 39.8162Z" fill="#191717"/>
<path d="M277.056 39.9506C277.056 40.1442 276.833 40.3102 276.547 40.3141C276.261 40.3181 276.026 40.16 276.026 39.9664C276.026 39.7728 276.249 39.6068 276.535 39.6029C276.821 39.5989 277.056 39.753 277.056 39.9506Z" fill="#191717"/>
<path d="M278.884 39.6463C278.92 39.84 278.721 40.0415 278.435 40.0889C278.149 40.1363 277.898 40.0217 277.862 39.8321C277.827 39.6424 278.033 39.4369 278.312 39.3855C278.59 39.3342 278.848 39.4527 278.884 39.6463Z" fill="#191717"/>
</g>
<defs>
<clipPath id="clip0_21_100">
<rect width="48" height="48" fill="white" transform="translate(174)"/>
</clipPath>
<clipPath id="clip1_21_100">
<rect width="48" height="48" fill="white" transform="translate(261)"/>
</clipPath>
</defs>
</svg>
