<svg width="109" height="116" viewBox="0 0 109 116" fill="none" xmlns="http://www.w3.org/2000/svg">
<path d="M20.9252 78.75V11.25H89.0238V78.75H20.9252Z" fill="#FFD600"/>
<path d="M65.4503 61.7756C66.7593 63.8831 68.1819 65.9025 71.1952 65.9025C73.7262 65.9025 75.0541 64.6556 75.0541 62.9306C75.0541 60.8663 73.6808 60.1331 70.8963 58.9313L69.3698 58.2863C64.9642 56.4338 62.0341 54.1125 62.0341 49.2094C62.0341 44.6906 65.5241 41.2519 70.9777 41.2519C74.8612 41.2519 77.6513 42.585 79.664 46.0762L74.9085 49.0894C73.8624 47.2369 72.7312 46.5075 70.9777 46.5075C69.1882 46.5075 68.0551 47.6269 68.0551 49.0894C68.0551 50.8969 69.1901 51.6281 71.81 52.7475L73.3365 53.3925C78.5291 55.5844 81.4573 57.8231 81.4573 62.8556C81.4573 68.2781 77.1368 71.25 71.3371 71.25C65.6641 71.25 62.4426 68.4281 60.6494 64.935L65.4503 61.7756ZM43.5339 61.9294C44.4911 63.6281 45.9457 64.935 48.0379 64.935C50.0392 64.935 51.1912 64.1513 51.1912 61.1044V41.25H57.496V62.0644C57.496 68.3775 53.8017 71.25 48.4068 71.25C43.532 71.25 40.0136 67.9763 38.5797 64.935L43.5339 61.9294Z" fill="#000001"/>
<path d="M3.36344 109.032V99.204H7.03544V109.032H3.36344ZM5.19944 98.088C4.51944 98.088 4.02344 97.932 3.71144 97.62C3.39944 97.3 3.24344 96.872 3.24344 96.336V96.252C3.24344 95.716 3.39944 95.292 3.71144 94.98C4.02344 94.668 4.51944 94.512 5.19944 94.512C5.87944 94.512 6.37544 94.668 6.68744 94.98C7.00744 95.292 7.16744 95.716 7.16744 96.252V96.336C7.16744 96.88 7.00744 97.308 6.68744 97.62C6.37544 97.932 5.87944 98.088 5.19944 98.088ZM2.93144 115.332C2.57144 115.332 2.23944 115.308 1.93544 115.26C1.62344 115.22 1.35144 115.168 1.11944 115.104L0.85544 112.188C1.01544 112.244 1.18344 112.288 1.35944 112.32C1.52744 112.352 1.70344 112.368 1.88744 112.368C2.47944 112.368 2.87144 112.212 3.06344 111.9C3.26344 111.588 3.36344 111.156 3.36344 110.604V108.324H7.03544V110.856C7.03544 111.76 6.90344 112.544 6.63944 113.208C6.38344 113.88 5.95544 114.4 5.35544 114.768C4.75544 115.144 3.94744 115.332 2.93144 115.332ZM16.2436 111L16.3516 108.048L16.2676 107.868V104.184L16.2436 103.704C16.2436 103.048 16.0516 102.564 15.6676 102.252C15.2836 101.94 14.6396 101.784 13.7356 101.784C12.9436 101.784 12.1916 101.884 11.4796 102.084C10.7676 102.284 10.0956 102.512 9.46357 102.768L9.77557 99.924C10.1516 99.748 10.5716 99.584 11.0356 99.432C11.5076 99.272 12.0276 99.144 12.5956 99.048C13.1636 98.952 13.7716 98.904 14.4196 98.904C15.4516 98.904 16.3156 99.024 17.0116 99.264C17.7076 99.504 18.2636 99.844 18.6796 100.284C19.0956 100.724 19.3956 101.252 19.5796 101.868C19.7636 102.476 19.8556 103.148 19.8556 103.884V111H16.2436ZM12.4876 111.276C11.3116 111.276 10.4196 110.98 9.81157 110.388C9.20357 109.796 8.89957 108.952 8.89957 107.856V107.532C8.89957 106.372 9.25557 105.516 9.96757 104.964C10.6876 104.404 11.8276 104.024 13.3876 103.824L16.5556 103.404L16.7716 105.612L13.9636 106.02C13.3956 106.092 12.9956 106.224 12.7636 106.416C12.5316 106.608 12.4156 106.892 12.4156 107.268V107.352C12.4156 107.712 12.5316 108 12.7636 108.216C12.9956 108.424 13.3676 108.528 13.8796 108.528C14.3276 108.528 14.7116 108.46 15.0316 108.324C15.3596 108.188 15.6276 108.012 15.8356 107.796C16.0436 107.572 16.1996 107.324 16.3036 107.052L16.8196 108.54H16.2196C16.0916 109.052 15.8916 109.516 15.6196 109.932C15.3556 110.348 14.9716 110.676 14.4676 110.916C13.9636 111.156 13.3036 111.276 12.4876 111.276ZM26.9779 108.6L29.1259 99.204H32.8939L29.7619 111H23.8819L20.7259 99.204H24.5179L26.6899 108.6H26.9779ZM40.7123 111L40.8203 108.048L40.7363 107.868V104.184L40.7123 103.704C40.7123 103.048 40.5203 102.564 40.1363 102.252C39.7523 101.94 39.1083 101.784 38.2043 101.784C37.4123 101.784 36.6603 101.884 35.9483 102.084C35.2363 102.284 34.5643 102.512 33.9323 102.768L34.2443 99.924C34.6203 99.748 35.0403 99.584 35.5043 99.432C35.9763 99.272 36.4963 99.144 37.0643 99.048C37.6323 98.952 38.2403 98.904 38.8883 98.904C39.9203 98.904 40.7843 99.024 41.4803 99.264C42.1763 99.504 42.7323 99.844 43.1483 100.284C43.5643 100.724 43.8643 101.252 44.0483 101.868C44.2323 102.476 44.3243 103.148 44.3243 103.884V111H40.7123ZM36.9563 111.276C35.7803 111.276 34.8883 110.98 34.2803 110.388C33.6723 109.796 33.3683 108.952 33.3683 107.856V107.532C33.3683 106.372 33.7243 105.516 34.4363 104.964C35.1563 104.404 36.2963 104.024 37.8563 103.824L41.0243 103.404L41.2403 105.612L38.4323 106.02C37.8643 106.092 37.4643 106.224 37.2323 106.416C37.0003 106.608 36.8843 106.892 36.8843 107.268V107.352C36.8843 107.712 37.0003 108 37.2323 108.216C37.4643 108.424 37.8363 108.528 38.3483 108.528C38.7963 108.528 39.1803 108.46 39.5003 108.324C39.8283 108.188 40.0963 108.012 40.3043 107.796C40.5123 107.572 40.6683 107.324 40.7723 107.052L41.2883 108.54H40.6883C40.5603 109.052 40.3603 109.516 40.0883 109.932C39.8243 110.348 39.4403 110.676 38.9363 110.916C38.4323 111.156 37.7723 111.276 36.9563 111.276ZM51.5446 111.324C50.8326 111.324 50.1646 111.276 49.5406 111.18C48.9246 111.092 48.3606 110.976 47.8486 110.832C47.3446 110.68 46.9006 110.524 46.5166 110.364L46.1926 106.908C46.8246 107.204 47.5726 107.48 48.4366 107.736C49.3006 107.984 50.2166 108.108 51.1846 108.108C52.1206 108.108 52.7846 107.992 53.1766 107.76C53.5766 107.52 53.7766 107.148 53.7766 106.644V106.56C53.7766 106.224 53.6846 105.952 53.5006 105.744C53.3246 105.528 53.0246 105.332 52.6006 105.156C52.1846 104.972 51.6206 104.776 50.9086 104.568C49.8366 104.248 48.9406 103.892 48.2206 103.5C47.5086 103.108 46.9766 102.62 46.6246 102.036C46.2726 101.444 46.0966 100.696 46.0966 99.792V99.636C46.0966 98.244 46.5686 97.18 47.5126 96.444C48.4646 95.708 49.8606 95.34 51.7006 95.34C52.8046 95.34 53.7566 95.436 54.5566 95.628C55.3646 95.82 56.0486 96.048 56.6086 96.312L56.9326 99.528C56.3166 99.232 55.6166 98.984 54.8326 98.784C54.0566 98.576 53.2246 98.472 52.3366 98.472C51.7126 98.472 51.2206 98.524 50.8606 98.628C50.5086 98.732 50.2606 98.884 50.1166 99.084C49.9726 99.276 49.9006 99.512 49.9006 99.792V99.84C49.9006 100.128 49.9806 100.38 50.1406 100.596C50.3086 100.812 50.6046 101.02 51.0286 101.22C51.4606 101.42 52.0726 101.636 52.8646 101.868C53.9286 102.18 54.8086 102.516 55.5046 102.876C56.2086 103.228 56.7326 103.688 57.0766 104.256C57.4286 104.816 57.6046 105.564 57.6046 106.5V106.692C57.6046 108.236 57.1046 109.396 56.1046 110.172C55.1046 110.94 53.5846 111.324 51.5446 111.324ZM64.6849 111.312C62.8129 111.312 61.4249 110.82 60.5209 109.836C59.6169 108.852 59.1649 107.468 59.1649 105.684V104.46C59.1649 102.708 59.6169 101.34 60.5209 100.356C61.4249 99.372 62.8089 98.88 64.6729 98.88C65.1529 98.88 65.6009 98.916 66.0169 98.988C66.4329 99.052 66.8169 99.144 67.1689 99.264C67.5209 99.384 67.8289 99.512 68.0929 99.648L68.3929 102.684C68.0009 102.46 67.5689 102.276 67.0969 102.132C66.6249 101.98 66.0929 101.904 65.5009 101.904C64.5729 101.904 63.9009 102.128 63.4849 102.576C63.0689 103.024 62.8609 103.672 62.8609 104.52V105.54C62.8609 106.404 63.0809 107.068 63.5209 107.532C63.9609 107.996 64.6489 108.228 65.5849 108.228C66.1689 108.228 66.6929 108.16 67.1569 108.024C67.6289 107.88 68.0769 107.696 68.5009 107.472L68.2129 110.52C67.7969 110.744 67.2849 110.932 66.6769 111.084C66.0689 111.236 65.4049 111.312 64.6849 111.312ZM73.9313 104.376L72.9233 102.144H73.7873C73.9793 101.168 74.3513 100.404 74.9033 99.852C75.4633 99.292 76.2513 99.012 77.2673 99.012C77.4433 99.012 77.6033 99.024 77.7473 99.048C77.8993 99.072 78.0433 99.1 78.1793 99.132L78.3593 102.84C78.1913 102.792 77.9953 102.76 77.7713 102.744C77.5473 102.72 77.3193 102.708 77.0873 102.708C76.3033 102.708 75.6433 102.856 75.1073 103.152C74.5713 103.44 74.1793 103.848 73.9313 104.376ZM70.3313 111V99.204H73.7873L73.6313 102.972L74.0033 103.02V111H70.3313ZM79.8589 111V99.204H83.5309V111H79.8589ZM81.6949 98.088C81.0069 98.088 80.5069 97.932 80.1949 97.62C79.8829 97.3 79.7269 96.872 79.7269 96.336V96.252C79.7269 95.716 79.8829 95.292 80.1949 94.98C80.5069 94.668 81.0069 94.512 81.6949 94.512C82.3669 94.512 82.8589 94.668 83.1709 94.98C83.4909 95.292 83.6509 95.716 83.6509 96.252V96.336C83.6509 96.88 83.4909 97.308 83.1709 97.62C82.8589 97.932 82.3669 98.088 81.6949 98.088ZM93.1996 111.276C92.4956 111.276 91.9036 111.16 91.4236 110.928C90.9436 110.696 90.5596 110.368 90.2716 109.944C89.9916 109.512 89.7916 109.012 89.6716 108.444H88.7236L89.5876 105.972C89.6036 106.46 89.6956 106.872 89.8636 107.208C90.0396 107.544 90.2876 107.804 90.6076 107.988C90.9356 108.164 91.3236 108.252 91.7716 108.252C92.4436 108.252 92.9516 108.056 93.2956 107.664C93.6476 107.264 93.8236 106.672 93.8236 105.888V104.208C93.8236 103.424 93.6516 102.836 93.3076 102.444C92.9716 102.052 92.4676 101.856 91.7956 101.856C91.4196 101.856 91.0756 101.928 90.7636 102.072C90.4596 102.216 90.1996 102.408 89.9836 102.648C89.7756 102.88 89.6236 103.148 89.5276 103.452L88.6876 101.76H89.6596C89.7796 101.232 89.9796 100.756 90.2596 100.332C90.5396 99.9 90.9276 99.56 91.4236 99.312C91.9196 99.056 92.5516 98.928 93.3196 98.928C94.6956 98.928 95.7356 99.38 96.4396 100.284C97.1516 101.18 97.5076 102.528 97.5076 104.328V105.768C97.5076 107.584 97.1516 108.956 96.4396 109.884C95.7356 110.812 94.6556 111.276 93.1996 111.276ZM85.9876 115.128V99.204H89.6356L89.5156 102.384L89.5876 102.804V107.34L89.5396 107.964L89.6356 111.12V115.128H85.9876ZM104.227 111.264C103.179 111.264 102.343 111.108 101.719 110.796C101.103 110.476 100.659 110 100.387 109.368C100.115 108.736 99.979 107.956 99.979 107.028V100.44H103.627V106.44C103.627 107.016 103.755 107.44 104.011 107.712C104.275 107.976 104.763 108.108 105.475 108.108C105.867 108.108 106.255 108.064 106.639 107.976C107.023 107.888 107.371 107.776 107.683 107.64L107.371 110.676C106.963 110.852 106.491 110.992 105.955 111.096C105.427 111.208 104.851 111.264 104.227 111.264ZM98.395 102.132V99.252H107.575L107.251 102.132H98.395ZM100.027 99.516L100.015 96.468L103.651 96.12L103.519 99.516H100.027Z" fill="black"/>
</svg>
